<mxfile host="app.diagrams.net" modified="2023-07-11T11:15:18.481Z" agent="Mozilla/5.0 (Windows NT 10.0; Win64; x64) AppleWebKit/537.36 (KHTML, like Gecko) Chrome/113.0.0.0 Safari/537.36 OPR/99.0.0.0 (Edition Yx GX)" etag="QQAh0ykuRijgqRykzDvB" version="21.6.1" type="github">
  <diagram id="C5RBs43oDa-KdzZeNtuy" name="Page-1">
    <mxGraphModel dx="975" dy="570" grid="1" gridSize="10" guides="1" tooltips="1" connect="1" arrows="1" fold="1" page="1" pageScale="1" pageWidth="2000" pageHeight="5000" math="0" shadow="0">
      <root>
        <mxCell id="WIyWlLk6GJQsqaUBKTNV-0" />
        <mxCell id="WIyWlLk6GJQsqaUBKTNV-1" parent="WIyWlLk6GJQsqaUBKTNV-0" />
        <mxCell id="bsw6Kp4nGpMMVDiLY85o-23" style="edgeStyle=orthogonalEdgeStyle;rounded=0;orthogonalLoop=1;jettySize=auto;html=1;entryX=0.5;entryY=1;entryDx=0;entryDy=0;" parent="WIyWlLk6GJQsqaUBKTNV-1" source="bsw6Kp4nGpMMVDiLY85o-0" target="bsw6Kp4nGpMMVDiLY85o-11" edge="1">
          <mxGeometry relative="1" as="geometry" />
        </mxCell>
        <mxCell id="bsw6Kp4nGpMMVDiLY85o-26" style="edgeStyle=orthogonalEdgeStyle;rounded=0;orthogonalLoop=1;jettySize=auto;html=1;entryX=0;entryY=0.5;entryDx=0;entryDy=0;exitX=0.5;exitY=0;exitDx=0;exitDy=0;" parent="WIyWlLk6GJQsqaUBKTNV-1" source="bsw6Kp4nGpMMVDiLY85o-21" target="bsw6Kp4nGpMMVDiLY85o-25" edge="1">
          <mxGeometry relative="1" as="geometry" />
        </mxCell>
        <mxCell id="bsw6Kp4nGpMMVDiLY85o-36" style="edgeStyle=orthogonalEdgeStyle;rounded=0;orthogonalLoop=1;jettySize=auto;html=1;entryX=0;entryY=0.5;entryDx=0;entryDy=0;" parent="WIyWlLk6GJQsqaUBKTNV-1" source="bsw6Kp4nGpMMVDiLY85o-0" target="bsw6Kp4nGpMMVDiLY85o-35" edge="1">
          <mxGeometry relative="1" as="geometry" />
        </mxCell>
        <mxCell id="bsw6Kp4nGpMMVDiLY85o-0" value="MainWindow" style="rounded=0;whiteSpace=wrap;html=1;" parent="WIyWlLk6GJQsqaUBKTNV-1" vertex="1">
          <mxGeometry x="1000" y="1160" width="100" height="100" as="geometry" />
        </mxCell>
        <mxCell id="bsw6Kp4nGpMMVDiLY85o-20" style="edgeStyle=orthogonalEdgeStyle;rounded=0;orthogonalLoop=1;jettySize=auto;html=1;entryX=1;entryY=0.5;entryDx=0;entryDy=0;" parent="WIyWlLk6GJQsqaUBKTNV-1" source="bsw6Kp4nGpMMVDiLY85o-11" target="bsw6Kp4nGpMMVDiLY85o-19" edge="1">
          <mxGeometry relative="1" as="geometry" />
        </mxCell>
        <mxCell id="bsw6Kp4nGpMMVDiLY85o-11" value="serverRequestInit()&lt;br style=&quot;border-color: var(--border-color);&quot;&gt;Запрос Json файла от сервера и запись данных" style="rounded=0;whiteSpace=wrap;html=1;" parent="WIyWlLk6GJQsqaUBKTNV-1" vertex="1">
          <mxGeometry x="690" y="1030" width="130" height="130" as="geometry" />
        </mxCell>
        <mxCell id="bsw6Kp4nGpMMVDiLY85o-15" value="&lt;font style=&quot;font-size: 100px;&quot;&gt;Структура кода&lt;a style=&quot;color: rgb(26, 13, 171); text-decoration-line: none; -webkit-tap-highlight-color: rgba(0, 0, 0, 0.1); outline: 0px; font-family: arial, sans-serif; text-align: left; background-color: rgb(255, 255, 255);&quot; data-jrwt=&quot;1&quot; data-cthref=&quot;/url?sa=t&amp;amp;rct=j&amp;amp;q=&amp;amp;esrc=s&amp;amp;source=web&amp;amp;cd=&amp;amp;ved=2ahUKEwiC8NmU4IOAAxWaIRAIHfAIAo8QFnoECA8QAw&amp;amp;url=https%3A%2F%2Fsymbl.cc%2Fru%2F2191%2F%23%3A~%3Atext%3D%25D0%25A1%25D1%2582%25D1%2580%25D0%25B5%25D0%25BB%25D0%25BA%25D1%2583%2520%25D0%25B2%25D0%25B2%25D0%25B5%25D1%2580%25D1%2585%2520%25D0%25B8%25D1%2581%25D0%25BF%25D0%25BE%25D0%25BB%25D1%258C%25D0%25B7%25D1%2583%25D1%258E%25D1%2582%2520%25D0%25B4%25D0%25BB%25D1%258F%2520%25D0%25B7%25D0%25B0%25D0%25BF%25D0%25B8%25D1%2581%25D0%25B8%2C%25D0%25B2%25D0%25B5%25D1%2580%25D1%2581%25D0%25B8%25D0%25B8%25201.1%2520%25D0%25B2%25201993%2520%25D0%25B3.&amp;amp;usg=AOvVaw2KubObDzfMly54Mnot6bmY&amp;amp;opi=89978449&quot; data-ctbtn=&quot;0&quot; data-ved=&quot;2ahUKEwiC8NmU4IOAAxWaIRAIHfAIAo8QFnoECA8QAw&quot; data-usg=&quot;AOvVaw2KubObDzfMly54Mnot6bmY&quot; data-jsarwt=&quot;1&quot; href=&quot;https://www.google.com/url?sa=t&amp;amp;rct=j&amp;amp;q=&amp;amp;esrc=s&amp;amp;source=web&amp;amp;cd=&amp;amp;ved=2ahUKEwiC8NmU4IOAAxWaIRAIHfAIAo8QFnoECA8QAw&amp;amp;url=https%3A%2F%2Fsymbl.cc%2Fru%2F2191%2F%23%3A~%3Atext%3D%25D0%25A1%25D1%2582%25D1%2580%25D0%25B5%25D0%25BB%25D0%25BA%25D1%2583%2520%25D0%25B2%25D0%25B2%25D0%25B5%25D1%2580%25D1%2585%2520%25D0%25B8%25D1%2581%25D0%25BF%25D0%25BE%25D0%25BB%25D1%258C%25D0%25B7%25D1%2583%25D1%258E%25D1%2582%2520%25D0%25B4%25D0%25BB%25D1%258F%2520%25D0%25B7%25D0%25B0%25D0%25BF%25D0%25B8%25D1%2581%25D0%25B8%2C%25D0%25B2%25D0%25B5%25D1%2580%25D1%2581%25D0%25B8%25D0%25B8%25201.1%2520%25D0%25B2%25201993%2520%25D0%25B3.&amp;amp;usg=AOvVaw2KubObDzfMly54Mnot6bmY&amp;amp;opi=89978449&quot;&gt;&lt;h3 style=&quot;font-weight: 400; margin: 18px 0px 0px; padding: 5px 0px 0px; line-height: 1.3; display: inline-block;&quot; class=&quot;LC20lb MBeuO DKV0Md&quot;&gt;↑&lt;/h3&gt;&lt;/a&gt;&lt;/font&gt;" style="text;html=1;strokeColor=none;fillColor=none;align=center;verticalAlign=middle;whiteSpace=wrap;rounded=0;" parent="WIyWlLk6GJQsqaUBKTNV-1" vertex="1">
          <mxGeometry x="500" y="2200" width="1000" height="300" as="geometry" />
        </mxCell>
        <mxCell id="bsw6Kp4nGpMMVDiLY85o-17" value="&lt;font style=&quot;font-size: 100px;&quot;&gt;Представление выполнения ↓&lt;/font&gt;" style="text;html=1;strokeColor=none;fillColor=none;align=center;verticalAlign=middle;whiteSpace=wrap;rounded=0;" parent="WIyWlLk6GJQsqaUBKTNV-1" vertex="1">
          <mxGeometry x="500" y="2500" width="1000" height="300" as="geometry" />
        </mxCell>
        <mxCell id="bsw6Kp4nGpMMVDiLY85o-24" style="edgeStyle=orthogonalEdgeStyle;rounded=0;orthogonalLoop=1;jettySize=auto;html=1;entryX=1;entryY=0.5;entryDx=0;entryDy=0;" parent="WIyWlLk6GJQsqaUBKTNV-1" source="bsw6Kp4nGpMMVDiLY85o-19" target="bsw6Kp4nGpMMVDiLY85o-21" edge="1">
          <mxGeometry relative="1" as="geometry" />
        </mxCell>
        <mxCell id="bsw6Kp4nGpMMVDiLY85o-19" value="readData()&lt;br&gt;Читаёт и записывает данные которые пришли от API" style="rounded=0;whiteSpace=wrap;html=1;" parent="WIyWlLk6GJQsqaUBKTNV-1" vertex="1">
          <mxGeometry x="510" y="1030" width="130" height="130" as="geometry" />
        </mxCell>
        <mxCell id="bsw6Kp4nGpMMVDiLY85o-21" value="finishReading()&lt;br&gt;Преобразует данные в объект&amp;nbsp;QJsonObject" style="rounded=0;whiteSpace=wrap;html=1;" parent="WIyWlLk6GJQsqaUBKTNV-1" vertex="1">
          <mxGeometry x="330" y="1030" width="130" height="130" as="geometry" />
        </mxCell>
        <mxCell id="bsw6Kp4nGpMMVDiLY85o-28" style="edgeStyle=orthogonalEdgeStyle;rounded=0;orthogonalLoop=1;jettySize=auto;html=1;entryX=0.5;entryY=1;entryDx=0;entryDy=0;" parent="WIyWlLk6GJQsqaUBKTNV-1" source="bsw6Kp4nGpMMVDiLY85o-25" target="bsw6Kp4nGpMMVDiLY85o-27" edge="1">
          <mxGeometry relative="1" as="geometry" />
        </mxCell>
        <mxCell id="bsw6Kp4nGpMMVDiLY85o-25" value="init()&lt;br&gt;Инициализирует используя полученный QjsonObject" style="rounded=0;whiteSpace=wrap;html=1;" parent="WIyWlLk6GJQsqaUBKTNV-1" vertex="1">
          <mxGeometry x="870" y="850" width="130" height="130" as="geometry" />
        </mxCell>
        <mxCell id="bsw6Kp4nGpMMVDiLY85o-38" style="edgeStyle=orthogonalEdgeStyle;rounded=0;orthogonalLoop=1;jettySize=auto;html=1;" parent="WIyWlLk6GJQsqaUBKTNV-1" source="bsw6Kp4nGpMMVDiLY85o-27" target="bsw6Kp4nGpMMVDiLY85o-37" edge="1">
          <mxGeometry relative="1" as="geometry" />
        </mxCell>
        <mxCell id="bsw6Kp4nGpMMVDiLY85o-27" value="initCurrencyQuotation()&lt;br&gt;Инициализирует массив (Именование, котировка, статус отдельной отрисовки Widget) из объектов QJsonObject" style="rounded=0;whiteSpace=wrap;html=1;" parent="WIyWlLk6GJQsqaUBKTNV-1" vertex="1">
          <mxGeometry x="835" y="670" width="200" height="130" as="geometry" />
        </mxCell>
        <mxCell id="bsw6Kp4nGpMMVDiLY85o-35" value="createWidgets()&lt;br&gt;Создание окон путём инициализации массива окон учитывая статус" style="rounded=0;whiteSpace=wrap;html=1;" parent="WIyWlLk6GJQsqaUBKTNV-1" vertex="1">
          <mxGeometry x="1100" y="850" width="130" height="130" as="geometry" />
        </mxCell>
        <mxCell id="bsw6Kp4nGpMMVDiLY85o-37" value="initMainWindow()&lt;br&gt;Инициализирует кнопки главного окна&lt;br&gt;CurrencyComboBox, CurrencyQuotationLabel" style="rounded=0;whiteSpace=wrap;html=1;" parent="WIyWlLk6GJQsqaUBKTNV-1" vertex="1">
          <mxGeometry x="870" y="490" width="130" height="130" as="geometry" />
        </mxCell>
      </root>
    </mxGraphModel>
  </diagram>
</mxfile>
